<?xml version="1.0" encoding="utf-8"?>
<!-- Generator: Adobe Illustrator 26.0.2, SVG Export Plug-In . SVG Version: 6.00 Build 0)  -->
<svg version="1.1" id="Layer_1" xmlns="http://www.w3.org/2000/svg" xmlns:xlink="http://www.w3.org/1999/xlink" x="0px" y="0px"
	 viewBox="0 0 152 165" style="enable-background:new 0 0 152 165;" xml:space="preserve">
<style type="text/css">
	.st0{fill:#FFFFFF;}
</style>
<g>
	<g>
		<path class="st0" d="M51,97.3c-0.8,1.4-1,2.4-0.1,3.8c2.5,4,4.6,8.2,7.1,12.1c5.2,8.5,5.5,17.5,1.5,26.4c-2.6,5.6-5.9,10.9-9,16.3
			c-0.4,0.7-1.7,1.1-2.6,1.2c-5.2,0-10.4,0.1-15.6,0.1H16.3l0.4-0.6l2.5-4.4l16.5-28.6l7.2-12.4c1.9-3.3,3.8-6.6,5.8-9.9
			c0.8-1.4,0.8-2.4,0-3.9c-3.4-6.4-7.2-12.7-9.8-19.4c-2.7-7-1.8-14.3,1.9-21c2.6-4.7,5.3-9.3,8.1-13.9c0.6-0.9,2-1.7,3.1-1.7
			c5.2-0.1,10.4,0.2,15.6,0.3c5,0.1,10,0,15.4,0c-0.5,0.9-0.9,1.8-1.4,2.7C71.4,62,61.2,79.7,51,97.3z"/>
	</g>
	<g>
		<path class="st0" d="M103.7,63.7c-0.8,1.4-1,2.4-0.1,3.8c2.5,4,4.6,8.2,7.1,12.1c5.2,8.5,5.5,17.5,1.5,26.4
			c-2.6,5.6-5.9,10.9-9,16.3c-0.4,0.7-1.7,1.1-2.6,1.2c-5.2,0-10.4,0.1-15.6,0.1H69l0.4-0.6l2.5-4.4L88.4,90l7.2-12.4
			c1.9-3.3,3.8-6.6,5.8-9.9c0.8-1.4,0.8-2.4,0-3.9c-3.4-6.4-7.2-12.7-9.8-19.4c-2.7-7-1.8-14.3,1.9-21c2.6-4.7,5.3-9.3,8.1-13.9
			c0.6-0.9,2-1.7,3.1-1.7c5.2-0.1,10.4,0.2,15.6,0.3c5,0.1,10,0,15.4,0c-0.5,0.9-0.9,1.8-1.4,2.7C124.1,28.5,113.9,46.1,103.7,63.7z
			"/>
	</g>
</g>
</svg>
